<svg xmlns="http://www.w3.org/2000/svg" xmlns:xlink="http://www.w3.org/1999/xlink" width="17" height="24" viewBox="0 0 17 24">
    <defs>
        <path id="prefix__a" d="M0 24L24 24 24 0 0 0z"/>
    </defs>
    <g fill="none" fill-rule="evenodd" transform="translate(-3)">
        <path fill="#FFF" d="M18.366.99H5.613c-.897 0-1.624.727-1.624 1.623v18.78c0 .895.728 1.622 1.623 1.622h12.754c.896 0 1.623-.727 1.623-1.623V2.613c0-.896-.727-1.623-1.623-1.623zM5.99 21.015h12V2.99h-12v18.025z"/>
        <mask id="prefix__b" fill="#fff">
            <use xlink:href="#prefix__a"/>
        </mask>
        <path fill="#FFF" d="M7.49 8.49L16.49 8.49 16.49 6.49 7.49 6.49zM7.525 13L16.49 13 16.49 11 7.525 11zM7.525 17.5L12.99 17.5 12.99 15.5 7.525 15.5z" mask="url(#prefix__b)"/>
    </g>
</svg>
