<svg xmlns="http://www.w3.org/2000/svg" xmlns:xlink="http://www.w3.org/1999/xlink" width="64" height="64" viewBox="0 0 64 64">
    <defs>
        <filter id="prefix__a" width="131.4%" height="131.4%" x="-15.7%" y="-12%" filterUnits="objectBoundingBox">
            <feOffset dy="2" in="SourceAlpha" result="shadowOffsetOuter1"/>
            <feGaussianBlur in="shadowOffsetOuter1" result="shadowBlurOuter1" stdDeviation="2.5"/>
            <feColorMatrix in="shadowBlurOuter1" values="0 0 0 0 0 0 0 0 0 0 0 0 0 0 0 0 0 0 0.18 0"/>
        </filter>
        <filter id="prefix__c" width="132.6%" height="134.5%" x="-16.3%" y="-12.3%" filterUnits="objectBoundingBox">
            <feOffset dy="2" in="SourceAlpha" result="shadowOffsetOuter1"/>
            <feGaussianBlur in="shadowOffsetOuter1" result="shadowBlurOuter1" stdDeviation="2"/>
            <feColorMatrix in="shadowBlurOuter1" values="0 0 0 0 0 0 0 0 0 0 0 0 0 0 0 0 0 0 0.3 0"/>
        </filter>
        <path id="prefix__b" d="M48.307 54.103H5.797C2.596 54.103 0 51.508 0 48.306V5.797C0 2.596 2.596 0 5.797 0h42.51c3.201 0 5.796 2.596 5.796 5.797v42.509c0 3.202-2.595 5.797-5.796 5.797"/>
        <path id="prefix__d" d="M48.94 8.816l-.286.294-.349.352c-.144.13-.312.28-.502.446-.093.086-.198.166-.308.252l-.347.269c-.12.095-.257.177-.394.27-.138.09-.279.19-.436.274-.609.367-1.358.702-2.221.925l-.329.074c-.111.023-.223.053-.337.068-.228.034-.461.078-.698.097-.119.012-.239.026-.36.035l-.365.02-.184.009c-.061 0-.123.003-.185.004l-.373.006c-.499 0-1.007-.016-1.519-.03-.51-.012-1.026-.025-1.548-.016-.522.01-1.048.029-1.572.084-.131.014-.262.028-.392.047-.131.016-.26.039-.39.06-.259.044-.515.096-.767.163-.506.129-.992.316-1.449.552-.228.12-.447.256-.66.402-.209.152-.414.31-.605.488-.068.06-.134.124-.199.187.145-.083.294-.161.439-.243.129-.065.263-.121.394-.181l.197-.088c.066-.027.135-.05.202-.074l.404-.144.04-.012.573-.16.205-.043.409-.085c.137-.024.272-.04.408-.061.136-.018.272-.042.405-.051.27-.022.538-.055.802-.062l.396-.016c.144-.006.288-.001.43-.003l.287-.002.441.014.378.012.367.022.719.043.173.009.175.009c.117.004.237.014.345.014.221.005.44.012.658.006.109-.003.217 0 .323-.007l.319-.016c.105-.003.209-.014.311-.023.104-.01.205-.02.306-.028l.299-.041c.099-.013.196-.026.292-.045.767-.132 1.457-.344 2.049-.59l.218-.088c.072-.032.14-.066.207-.098l.201-.095.097-.046.094-.05.355-.19c.112-.062.215-.128.316-.188.202-.118.372-.238.525-.338.077-.05.148-.095.21-.141l.17-.124.315-.228-.269.28-.148.153c-.055.055-.119.112-.186.175l-.219.202c-.077.074-.167.14-.258.218-.364.308-.837.65-1.423.982-.587.329-1.294.634-2.102.853-.1.03-.203.054-.307.077l-.316.072-.323.058c-.109.019-.22.04-.331.053-.223.03-.45.06-.681.076-.23.024-.468.034-.708.045-.243.012-.463.01-.713.014H38.55l-.362.005-.365.006c-.121.005-.243.01-.366.017-.979.049-1.982.156-2.931.437l-.324.098-.352.13c-.065.027-.133.049-.198.077l-.167.078c-.111.053-.225.1-.335.157-.213.123-.436.23-.636.376l-.153.103c-.052.035-.105.066-.151.107l-.292.23c-.101.072-.19.16-.283.244l-.091.082c.656-.393 1.359-.703 2.075-.918.508-.144 1.019-.266 1.528-.33.126-.017.253-.04.379-.052l.376-.036.187-.018c.063-.005.124-.006.187-.01l.37-.016c.123-.007.244-.007.366-.007l.362-.002.089-.001h.053l.043.002.174.005.345.013.676.024c.222.006.45.017.652.013h.309c.104-.001.207-.01.31-.012l.369-.017c.068-.006.135-.012.203-.02.11-.01.219-.013.326-.028l.287-.037c.192-.02.375-.06.558-.087.727-.13 1.381-.321 1.944-.537.565-.217 1.04-.455 1.423-.671.378-.223.672-.411.866-.55l.296-.212-.252.265c-.082.089-.192.187-.318.307-.124.123-.282.246-.456.39-.354.277-.803.598-1.362.897-.559.3-1.225.58-1.98.796-.189.052-.383.109-.583.149l-.302.066c-.101.024-.205.038-.309.057l-.342.058-.251.03c-.124.013-.247.033-.375.043l-.339.027c-.232.023-.447.024-.673.033l-.68.019-.345.009c-.059 0-.116.002-.174.003h-.054c.01 0-.004.002-.004.002h-.021l-.085.006-.342.018c-.114.006-.228.012-.342.025-.229.023-.461.037-.69.072l-.345.045c-.116.015-.229.04-.344.06-.115.022-.23.039-.344.065l-.341.082-.171.039-.168.05-.337.098c-.441.153-.88.322-1.294.544-.212.1-.409.229-.611.349-.052.029-.1.062-.147.097l-.146.1-.144.102-.074.05-.069.056c-.179.145-.364.28-.533.439.223-.137.452-.267.68-.392.451-.228.913-.433 1.385-.587.47-.168.95-.28 1.425-.373.118-.025.238-.04.356-.058.119-.018.237-.038.355-.053l.352-.035c.118-.01.234-.025.35-.028l.347-.017.172-.008.021-.001h.159c.22 0 .438.003.653.006l.64.009c.106 0 .21.003.314.005l.294-.008.29-.006c.096-.004.194-.013.29-.02l.286-.02c.095-.005.188-.02.281-.028.186-.021.369-.038.547-.07.178-.028.355-.052.524-.088.684-.13 1.301-.305 1.838-.497.536-.192.99-.404 1.356-.594.184-.094.343-.19.483-.27.139-.081.252-.16.347-.218.183-.13.281-.197.281-.197l-.059.064c-.04.042-.099.106-.178.187-.163.154-.402.388-.743.64-.338.255-.77.543-1.298.818-.529.274-1.152.536-1.858.75-.174.06-.358.1-.544.15-.186.052-.38.089-.577.13-.103.022-.271.054-.376.07l-.216.033c-.102.015-.204.033-.308.046l-.318.033-.325.033c-.103.005-.208.01-.313.017l-.636.033c-.215.013-.432.024-.651.034l-.082.004-.042.002h-.005l-.021.003-.158.016c-.106.01-.213.02-.319.032-.214.022-.426.062-.641.089-.11.018-.22.042-.329.062-.11.02-.22.04-.329.067l-.3.075-.159.039-.157.049c-.106.03-.211.063-.317.094-.104.032-.207.074-.31.11-.418.145-.817.34-1.214.54-.389.218-.774.447-1.133.718-.091.067-.185.128-.272.2l-.263.212-.11.089c.626-.403 1.29-.752 1.979-1.018.108-.043.22-.08.329-.118.111-.037.218-.08.329-.111l.333-.093.166-.046.168-.037.281-.061c.118-.026.238-.046.358-.065.12-.02.24-.04.36-.056l.331-.032c.11-.01.221-.023.327-.028.111-.007.217-.012.326-.016.215-.008.428-.01.639-.003.198 0 .394.002.587.003h.148c.049 0 .093-.003.139-.005l.276-.011.271-.011.273-.024.267-.025.133-.012.131-.018c.174-.024.346-.045.514-.07l.491-.09c.64-.13 1.221-.292 1.728-.464.509-.17.94-.36 1.29-.524.177-.082.329-.166.464-.234.13-.075.245-.136.332-.193l.118-.074.083-.056.069-.047-.056.06-.07.075-.101.097c-.155.145-.389.352-.715.58-.323.232-.732.496-1.229.747-.497.254-1.078.502-1.736.714l-.507.15c-.174.046-.353.087-.534.13l-.137.034c-.046.01-.093.017-.14.026l-.282.05-.03.006-.557.085c-.095.01-.213.026-.309.038-.048.005-.099.012-.146.016l-.147.01-.61.04c-.387.02-.778.047-1.173.114l-.296.045-.495.1-.093.023-.296.078-.148.038-.145.047-.353.114c-.07.023-.139.05-.208.078-.102.04-.209.076-.311.12-.763.322-1.502.74-2.195 1.238-.174.122-.342.255-.513.383l-.018.014c.523-.341 1.072-.65 1.646-.9l.302-.126.072-.03c.076-.032.155-.061.233-.088l.433-.145.029-.01.157-.041c.209-.052.414-.116.626-.15.21-.04.417-.081.627-.097.21-.021.416-.048.623-.047l.308-.008.276-.003.561-.003c.179-.006.348-.022.52-.03l.259-.013.1-.01c.219-.028.436-.047.648-.074.324-.051.641-.094.939-.162.302-.053.585-.134.859-.2.135-.036.265-.076.393-.113.064-.02.127-.036.189-.056l.181-.06c.48-.154.887-.322 1.221-.466.334-.146.59-.276.764-.37.173-.092.263-.147.263-.147s-.018.019-.056.054c-.036.035-.092.087-.168.152-.075.063-.169.143-.283.23l-.185.142-.216.152c-.307.209-.692.452-1.158.686l-.177.09c-.06.03-.123.058-.186.087-.126.056-.256.117-.391.176-.272.107-.559.226-.867.323-.305.109-.632.189-.97.282-.169.042-.343.074-.52.11l-.16.034-.315.053c-.208.03-.429.065-.64.088-.185.016-.372.03-.56.047l-.561.049c-.179.009-.358.044-.538.073-.181.023-.359.075-.54.115-.181.036-.359.1-.539.154-.358.116-.714.262-1.065.425-.7.333-1.383.752-2.031 1.23l-.021.014c-.682.5-1.467.787-2.267.866l-.103 8.922.048.002c.608.043 1.226.175 1.816.423.587.249 1.15.61 1.607 1.112.23.249.424.538.578.852.073.159.141.322.189.494.024.07.039.145.056.218l.024.122c.01.06.022.119.028.187l.014.145c.003.043.003.076.005.115l.002.056v.048l-.001.033-.006.135c-.014.178-.041.356-.088.528-.019.087-.051.17-.079.255-.032.083-.062.166-.099.246-.071.162-.159.313-.25.46-.19.292-.415.553-.666.777-.198.177-.41.333-.63.47-.054.033-.121.038-.18.015l-.839-.331c-.04-.015-.042-.07-.004-.09.123-.061.325-.165.411-.22.231-.142.443-.308.632-.494.188-.186.349-.394.477-.614.124-.223.216-.46.258-.7.026-.12.034-.242.043-.363l.003-.091v-.023l.001-.008-.002-.056-.004-.11-.008-.08c-.001-.025-.006-.055-.011-.085-.005-.03-.008-.06-.014-.09-.014-.06-.023-.12-.042-.177-.03-.118-.077-.232-.125-.345-.106-.223-.242-.436-.408-.63-.33-.386-.767-.694-1.243-.911-.474-.218-.989-.341-1.503-.381l-.067 5.833c.249.019.496.057.737.117.611.152 1.188.436 1.65.855.229.209.43.45.582.722.078.136.141.28.191.427.046.134.093.36.112.5l.005.06.004.06.003.057v.1l.001.022-.001.014-.002.028-.003.057c-.011.15-.032.299-.073.44-.076.287-.207.55-.369.78-.164.23-.358.429-.569.594-.21.167-.436.303-.668.412-.074.035-.148.067-.223.097-.043.017-.09.018-.133.005l-.354-.107c-.043-.013-.045-.074-.003-.09.165-.06.428-.163.551-.23.407-.214.782-.527 1.037-.924.127-.2.221-.418.271-.65.026-.113.037-.231.04-.35v-.043l.001-.023v-.008l-.001-.006-.006-.102c0-.018-.002-.032-.004-.045l-.006-.041-.005-.041-.008-.044c-.084-.47-.368-.902-.76-1.222-.393-.324-.888-.54-1.408-.642-.196-.04-.396-.061-.597-.068l-.054 4.654c.007 0 .015 0 .023.002.223.027.44.072.643.143.201.073.394.157.564.27l.063.04.078.059c.047.035.12.095.163.134.052.047.103.095.148.147.067.069.12.148.176.222l.07.119.034.059.028.06c.063.13.099.267.123.402l.018.2.003.075-.004.064c-.002.079-.017.155-.03.229-.034.147-.088.28-.15.4-.131.237-.296.415-.456.546-.16.132-.313.219-.44.283l-.09.043c-.028.013-.056.023-.081.033-.05.02-.092.038-.127.048l-.104.035.102-.04c.035-.012.076-.031.125-.054.024-.011.051-.023.078-.037l.087-.047c.122-.07.27-.162.42-.3.15-.135.301-.315.414-.546.054-.117.098-.245.123-.384.008-.07.02-.141.018-.214l.002-.051-.005-.058-.011-.118c-.006-.038-.016-.073-.023-.11-.009-.037-.016-.075-.032-.111-.012-.038-.026-.075-.04-.113-.015-.037-.035-.072-.052-.11l-.028-.054-.034-.052c-.023-.035-.045-.071-.069-.105-.055-.066-.106-.135-.171-.195-.042-.045-.09-.086-.139-.126-.04-.033-.108-.084-.152-.114l-.079-.053-.061-.034c-.16-.097-.342-.165-.529-.224-.19-.055-.392-.087-.599-.102l-.037 3.219c-.001.074-.076.133-.168.133-.093 0-.168-.06-.168-.133l-.037-3.224c-.083-.002-.166-.004-.252-.011-.466-.036-.951-.146-1.414-.366-.232-.11-.458-.245-.668-.412-.211-.165-.404-.364-.567-.594-.163-.23-.293-.493-.37-.78-.04-.141-.062-.29-.073-.44l-.002-.056-.002-.03v-.034l.001-.101c-.001-.016.001-.036.001-.056l.005-.06.005-.06v-.001c.019-.14.067-.367.113-.501.049-.147.112-.29.19-.425.152-.271.353-.512.582-.722l.104-.09c.084-.076.125-.073.251-.01l.424.182c.04.017.042.073.004.094-.139.08-.272.17-.394.27-.394.322-.677.755-.761 1.224l-.009.044-.005.04-.006.042c-.002.014-.003.027-.003.045l-.006.102-.001.007v.008l.001.022v.044c.003.118.013.236.04.35.049.23.143.45.27.649.255.398.63.71 1.037.926.408.219.85.344 1.282.398.073.01.146.016.22.02l-.053-4.631-.144-.005c-.08-.004-.157-.011-.237-.017l-.237-.027c-.63-.086-1.256-.282-1.834-.6-.288-.16-.561-.352-.813-.576-.251-.225-.478-.486-.666-.777-.093-.147-.18-.3-.251-.461-.038-.08-.068-.163-.102-.246-.027-.084-.056-.168-.077-.255-.048-.173-.073-.351-.087-.53l-.005-.134-.001-.033v-.048l.003-.056c.002-.04.002-.072.005-.115l.014-.145c.007-.068.018-.126.028-.187l.025-.122c.016-.073.032-.147.055-.218.048-.171.117-.335.19-.494.153-.314.348-.603.578-.851.123-.134.253-.26.39-.374.032-.027.075-.035.114-.02l.955.347c.027.01.03.047.006.063-.276.177-.525.389-.733.633-.043.047-.079.099-.119.148-.035.052-.075.1-.106.155-.071.104-.128.214-.182.326-.049.112-.096.226-.126.345-.018.058-.027.118-.042.177l-.014.09c-.004.03-.009.06-.01.085l-.008.08c-.002.032-.002.073-.003.11l-.001.053v.01l.001.024.002.09c.01.122.019.243.045.363.045.24.134.477.257.7.129.22.289.428.477.614.189.185.402.352.631.495.461.284.984.479 1.524.579l.205.034c.067.008.136.018.203.025l.081.007-.068-5.827-.166-.008c-.3-.021-.588-.055-.875-.112-.57-.111-1.117-.291-1.621-.536-.252-.121-.492-.26-.718-.415-.227-.155-.442-.322-.639-.504-.393-.367-.725-.786-.955-1.246-.115-.23-.212-.464-.279-.704-.066-.24-.111-.481-.13-.718-.006-.06-.007-.118-.01-.177l-.004-.088.003-.097c.004-.103.001-.188.019-.318l.022-.18c.007-.06.021-.11.031-.164.011-.053.022-.107.031-.16.012-.053.028-.103.039-.155.012-.052.025-.103.036-.155l.042-.15.038-.15c.014-.05.03-.097.044-.146.027-.098.049-.197.078-.292.027-.096.047-.198.077-.29.03-.093.055-.191.088-.28.034-.09.069-.177.108-.26.041-.081.087-.156.135-.227.047-.073.101-.135.156-.193.056-.057.112-.113.17-.16.061-.046.12-.09.179-.128.029-.02.059-.038.088-.057l.09-.047c.059-.03.117-.058.174-.082.231-.092.443-.132.621-.14.177-.013.323.01.42.029.049.01.088.02.113.027l.046.015c.223.07.35.305.287.53l-.014.048-.011.038c-.008.023-.018.06-.034.103-.03.087-.082.202-.145.338-.068.13-.147.282-.248.427-.1.149-.22.297-.37.438-.039.033-.082.065-.125.098-.044.033-.095.062-.148.092-.051.032-.106.062-.167.093-.06.03-.116.066-.177.103-.063.036-.118.08-.175.126-.026.024-.056.047-.082.073l-.071.083c-.022.028-.047.057-.067.088l-.057.096-.055.1-.042.108c-.013.036-.027.073-.039.11l-.026.116c-.008.038-.021.08-.023.116l-.015.109c-.015.063-.016.176-.022.273l-.003.038-.001.018v.005l.001.057c.002.042 0 .086.004.129.021.346.106.709.276 1.06.164.354.415.692.724.999.314.304.691.573 1.116.785.212.106.435.203.668.28.233.079.474.143.721.193.281.057.575.09.86.107l-.103-8.901c-.801-.08-1.585-.365-2.268-.866l-.019-.014c-.649-.478-1.331-.897-2.032-1.23-.352-.163-.706-.31-1.065-.425-.18-.053-.357-.118-.539-.154-.18-.04-.359-.092-.54-.115-.18-.03-.359-.064-.538-.073l-.561-.05-.559-.046c-.188-.02-.383-.05-.568-.077l-.182-.027c-.1-.02-.261-.05-.359-.068-.179-.04-.356-.07-.528-.113-.337-.093-.664-.173-.969-.282-.308-.097-.594-.216-.868-.323-.134-.06-.263-.12-.39-.176-.063-.03-.125-.056-.186-.086l-.177-.091c-.466-.234-.851-.477-1.158-.686l-.216-.152-.184-.141c-.114-.088-.208-.168-.284-.231-.076-.065-.131-.117-.168-.152l-.056-.054s.091.055.264.148c.173.093.429.223.763.369.334.144.742.312 1.22.466l.182.06c.061.02.125.037.189.056.128.037.258.077.394.114.273.065.555.146.858.199.299.068.615.11.94.162.163.02.329.037.498.057l.247.027c.063.004.128.008.191.01.196.007.386.026.59.033l.561.003.277.003.306.008c.208-.001.415.026.624.047.209.016.417.058.627.098.212.033.416.097.626.149l.158.042.028.009.433.145c.079.027.157.056.234.088l.071.03.302.127c.574.249 1.122.558 1.646.899l-.018-.014c-.171-.128-.339-.261-.514-.383-.691-.498-1.43-.916-2.194-1.238-.103-.044-.208-.08-.312-.12-.068-.027-.137-.055-.208-.078l-.351-.114-.146-.047-.148-.038-.294-.077c-.106-.03-.217-.045-.323-.07l-.215-.046-.348-.053c-.395-.067-.787-.093-1.173-.114l-.61-.04-.145-.01-.082-.008-.378-.047-.553-.083-.03-.006-.284-.051c-.046-.01-.092-.016-.138-.026l-.137-.033c-.182-.044-.36-.085-.534-.131l-.508-.15c-.657-.212-1.239-.46-1.735-.714-.498-.251-.907-.515-1.231-.746-.325-.23-.559-.436-.714-.581l-.101-.097-.07-.074-.056-.061.068.047.084.056.117.074c.088.057.202.118.333.193.136.068.287.152.464.234.351.165.781.354 1.29.524.507.172 1.087.335 1.729.464l.491.09c.168.025.339.046.513.07l.13.018.133.012.269.025.271.024.273.01c.091.005.182.009.274.012.047.002.092.006.141.006l.147-.001.587-.003c.211-.006.425-.005.64.003.108.004.215.009.325.016.106.005.218.019.327.028l.331.032c.119.016.239.037.36.056.12.019.24.039.359.065l.28.06.167.038.166.046c.112.03.223.062.333.093.113.03.22.074.33.11.11.04.221.076.329.119.69.266 1.353.615 1.979 1.018l-.109-.09-.264-.211c-.087-.072-.182-.133-.272-.2-.359-.271-.744-.5-1.132-.718-.398-.2-.797-.395-1.214-.54-.105-.036-.206-.078-.312-.11l-.315-.094-.157-.05-.16-.038-.3-.075c-.109-.027-.218-.047-.329-.067-.11-.02-.219-.044-.329-.062-.215-.027-.427-.067-.64-.09l-.32-.031-.159-.016-.019-.002h.005l-.011-.001-.041-.002-.082-.004c-.22-.01-.437-.021-.653-.034l-.634-.033-.314-.017-.324-.033-.318-.033c-.105-.013-.207-.031-.309-.046l-.216-.033c-.104-.016-.272-.048-.376-.07-.197-.041-.39-.078-.578-.13-.185-.05-.369-.09-.544-.15-.705-.214-1.328-.476-1.856-.75-.529-.275-.96-.563-1.299-.818-.341-.252-.579-.486-.743-.64-.079-.081-.137-.145-.177-.187l-.061-.064.283.197c.094.059.208.137.346.219.141.08.298.175.483.269.366.19.819.402 1.356.594.537.192 1.154.367 1.838.497.169.036.346.06.525.089.176.03.36.048.546.069.093.009.186.023.281.029l.287.02c.095.006.192.015.29.019l.29.006.294.008.312-.005.641-.01.652-.005h.181l.172.009c.115.006.231.01.346.017.117.003.234.018.351.028l.353.035c.117.015.235.035.353.053.119.019.238.033.358.058.473.094.955.205 1.423.373.474.154.935.359 1.385.587.23.125.458.255.681.392-.169-.158-.354-.294-.533-.44l-.07-.054-.072-.051-.146-.101-.144-.101c-.048-.035-.097-.068-.148-.097-.203-.12-.399-.25-.612-.35-.413-.221-.852-.39-1.294-.543l-.337-.098-.168-.05-.171-.04-.34-.081c-.114-.026-.23-.043-.344-.065-.115-.02-.228-.045-.344-.06l-.346-.045c-.228-.035-.46-.05-.688-.072-.114-.013-.23-.02-.344-.025l-.341-.018-.085-.005-.021-.001s-.015-.001-.003-.001h-.011l-.044-.001-.173-.003-.345-.01-.682-.018c-.224-.01-.439-.01-.672-.033l-.339-.027c-.128-.01-.251-.03-.376-.042l-.25-.031c-.115-.02-.229-.04-.341-.058-.105-.02-.208-.033-.31-.057l-.303-.066c-.2-.04-.392-.097-.582-.15-.756-.214-1.422-.494-1.979-.795-.56-.3-1.009-.62-1.363-.897-.173-.144-.332-.267-.456-.39-.127-.12-.237-.218-.318-.307l-.253-.265.298.212c.192.139.486.327.864.55.383.216.86.454 1.423.67.565.217 1.219.408 1.944.538.184.028.367.068.558.087l.288.037c.097.013.195.017.294.026l.341.029.226.009c.115.003.231.012.346.013h.31c.203.004.429-.007.652-.013l.676-.024c.114-.004.229-.01.345-.013l.173-.005.044-.001.03-.001H17.566l.362.003c.121 0 .243 0 .366.007.124.006.247.01.371.017.061.003.124.004.185.009l.188.018.377.036c.126.012.252.035.379.052.507.064 1.018.186 1.528.33.715.215 1.419.525 2.073.918l-.09-.082c-.093-.083-.181-.172-.282-.244l-.292-.23c-.048-.041-.101-.072-.151-.107l-.155-.103c-.2-.145-.423-.253-.635-.376-.11-.057-.224-.104-.335-.157l-.167-.078c-.065-.028-.133-.05-.199-.077l-.351-.131-.324-.097c-.95-.281-1.952-.388-2.93-.437l-.367-.017-.365-.006-.363-.005h-1.084c-.25-.003-.47-.002-.713-.014-.241-.011-.478-.021-.708-.045-.231-.016-.459-.045-.681-.076-.112-.013-.221-.034-.33-.053-.11-.02-.217-.04-.325-.058l-.315-.072c-.104-.023-.206-.046-.307-.077-.807-.22-1.515-.524-2.101-.853-.587-.331-1.06-.674-1.424-.982-.091-.077-.182-.144-.259-.218l-.218-.202c-.067-.063-.13-.12-.186-.175l-.149-.152-.268-.281.314.228.17.124c.063.046.135.09.21.14.154.1.324.22.527.339.1.06.203.126.315.189l.355.19.093.049.098.046.2.095c.068.032.137.066.207.098l.22.089c.592.245 1.28.457 2.049.589.094.019.193.032.292.045l.298.04.305.029c.104.009.206.02.312.023l.318.016c.106.007.215.004.324.007.218.006.437-.001.658-.006.109 0 .229-.01.345-.014l.176-.01.172-.008.719-.043.368-.022.377-.012.44-.014c.096 0 .193 0 .287.002.144.002.286-.003.432.003l.394.016c.265.007.533.04.802.062.135.009.271.033.406.05.135.022.272.038.409.062l.408.085c.068.015.137.028.205.044l.204.057.37.104.411.142c.077.03.157.055.234.086l.198.088c.131.06.264.116.393.18.146.083.294.16.44.244-.065-.063-.132-.126-.2-.187-.192-.177-.396-.336-.605-.488-.213-.146-.432-.282-.66-.402-.458-.236-.942-.423-1.448-.552-.252-.067-.51-.12-.769-.163-.129-.021-.258-.044-.389-.06-.13-.02-.261-.033-.392-.047-.523-.055-1.051-.074-1.572-.084-.523-.01-1.038.004-1.548.016-.513.014-1.02.03-1.519.03l-.374-.006-.184-.004-.185-.01c-.122-.006-.243-.012-.364-.02s-.241-.022-.359-.034c-.238-.02-.471-.063-.699-.097-.114-.015-.226-.045-.338-.068l-.328-.074c-.863-.223-1.611-.558-2.22-.925-.159-.083-.298-.184-.437-.274-.137-.093-.273-.175-.393-.27l-.347-.27c-.11-.085-.217-.165-.309-.251-.19-.166-.358-.315-.502-.446-.137-.14-.254-.256-.348-.352L6 8.816l.333.24c.107.08.239.178.395.292.162.105.347.228.553.366.1.07.214.135.332.204l.369.214c.062.039.131.072.2.106l.21.106c.143.07.286.15.445.212.617.282 1.342.52 2.152.654.81.132 1.702.146 2.659.087.479-.033.976-.072 1.489-.117.517-.045 1.051-.075 1.596-.092.547-.017 1.106-.012 1.678.03.142.01.286.02.43.037.144.014.288.034.434.053.29.044.582.096.873.168.583.139 1.167.343 1.718.626.275.143.541.305.798.48.253.18.5.37.727.579.458.415.856.883 1.211 1.368.088.123.177.253.261.377l.113.179.057.089.034.054.028.048c.155.254.296.509.431.76.27.5.514.982.791 1.4.191.288.401.54.636.755l-.088-7.606c-.422-.22-.712-.66-.712-1.168 0-.78.676-1.4 1.473-1.308.582.067 1.061.529 1.146 1.108.087.592-.22 1.12-.697 1.368l-.087 7.606c.233-.215.444-.467.636-.755.277-.418.52-.9.791-1.4.134-.251.276-.506.429-.76l.03-.048.033-.054.056-.09.115-.178c.084-.124.172-.254.26-.377.355-.485.752-.953 1.211-1.368.228-.21.475-.4.727-.58.257-.174.523-.336.799-.48.551-.282 1.134-.486 1.717-.625.292-.072.584-.124.874-.168.144-.02.289-.04.433-.053.145-.016.287-.027.431-.037.571-.042 1.131-.047 1.677-.03.545.017 1.08.047 1.595.092.514.045 1.011.084 1.491.117.956.059 1.847.045 2.659-.087.808-.134 1.534-.372 2.151-.654.159-.061.303-.142.445-.212l.209-.106c.07-.034.138-.067.202-.106l.368-.214c.118-.07.232-.133.333-.204.205-.138.389-.261.552-.366l.396-.291.332-.241zM33.199 28.978c-.003-.063-.01-.117-.016-.174-.023-.225-.072-.44-.12-.646-.049-.207-.102-.406-.158-.602-.055-.195-.102-.392-.156-.583-.055-.19-.116-.376-.199-.538-.081-.163-.18-.304-.292-.42-.11-.116-.23-.21-.349-.287-.118-.078-.239-.138-.353-.185-.229-.094-.444-.13-.621-.14-.179-.01-.321.008-.419.028-.05.01-.088.022-.113.028l-.039.012c-.229.073-.359.316-.29.547l.01.034s.002.012.01.037c.008.023.019.059.035.102.033.086.081.205.147.337.065.134.147.28.248.429.102.147.218.298.368.438.077.069.164.133.271.193.103.06.224.12.343.196.12.075.237.166.33.28.092.114.167.247.223.39.193.587.185 1.329-.152 2.034-.167.352-.413.692-.725.998-.276.27-.604.509-.97.709-.037.02-.245.122-.393.19-.042.02-.04.08.002.098l.92.39c.047.02.101.017.145-.01.342-.201.658-.435.942-.696.394-.365.722-.788.955-1.246.234-.457.371-.948.409-1.422.009-.118.015-.237.013-.352l-.001-.077-.005-.092zm-6.693 19.56c.069.027.104.039.104.039s-.036-.01-.106-.034c-.068-.024-.17-.061-.297-.125-.127-.062-.28-.151-.44-.282-.159-.132-.327-.308-.456-.547-.128-.236-.211-.541-.177-.871.032-.331.185-.676.444-.96.155-.172.345-.322.562-.445.021-.012.045-.015.069-.01l.275.078c-.315.114-.566.282-.78.496-.249.248-.404.554-.448.855-.046.303.016.59.127.82.112.233.266.412.414.549.151.136.297.23.419.299.123.068.223.11.29.138z"/>
    </defs>
    <g fill="none" fill-rule="evenodd" transform="translate(5 3)">
        <use fill="#000" filter="url(#prefix__a)" xlink:href="#prefix__b"/>
        <use fill="#30AEC8" xlink:href="#prefix__b"/>
        <g>
            <use fill="#000" filter="url(#prefix__c)" xlink:href="#prefix__d"/>
            <use fill="#FFF" xlink:href="#prefix__d"/>
        </g>
    </g>
</svg>
